<svg xmlns="http://www.w3.org/2000/svg" id="la-charger-cable" width="1200" height="800" viewBox="0 0 1200 800" preserveAspectRatio="xMidYMid meet" aria-hidden="true" focusable="false"><style>
    @keyframes la-charger-cable-flow { from { stroke-dashoffset: 790 } to { stroke-dashoffset: 0 } }
    #la-charger-cable .charge path { animation: la-charger-cable-flow 2.6s linear infinite; }
  @media (prefers-reduced-motion: reduce) { #la-charger-cable * { animation: none !important } }</style><defs><linearGradient id="lg0" x1="0" y1="0" x2="0" y2="1"><stop offset="0" stop-color="#f2f5f8" stop-opacity="1"/><stop offset="1" stop-color="#d5dee6" stop-opacity="1"/></linearGradient></defs><rect width="1200" height="800" fill="url(#lg0)"/><rect x="96.0" y="312.0" width="144.0" height="176.0" rx="10" fill="#eef2f6" stroke="#8f9baa" stroke-width="4"/><rect x="54.0" y="337.6" width="45.6" height="28.8" rx="3" fill="#9fabb8"/><rect x="54.0" y="433.6" width="45.6" height="28.8" rx="3" fill="#9fabb8"/><path d="M 240.0 400.0 C 432.0 192.0 600.0 608.0 768.0 400.0" stroke="#6f7b89" stroke-width="14" fill="none" stroke-linecap="round"/><g class="charge"><path d="M 240.0 400.0 C 432.0 192.0 600.0 608.0 768.0 400.0" stroke="#8fd47f" stroke-width="14" fill="none" stroke-linecap="round" stroke-dasharray="90 700" stroke-dashoffset="430"/></g><rect x="756.0" y="364.0" width="84.0" height="72.0" rx="4" fill="#b4bfcc" stroke="#6f7b89" stroke-width="4"/><ellipse cx="984.0" cy="556.8" rx="132.0" ry="22.4" fill="#000" opacity="0.16"/><path d="M 883.2 512.0 L 902.4 304.0 L 1065.6 304.0 L 1084.8 512.0 Z" fill="#4a5765"/><rect x="907.2" y="324.0" width="153.6" height="160.0" rx="3" fill="#7fa8cf"/><rect x="864.0" y="512.0" width="240.0" height="28.0" rx="8.4" fill="#8f9baa"/><rect x="864.0" y="512.0" width="240.0" height="11.8" rx="7.0" fill="#b4bfcc"/><defs><radialGradient id="rg1" cx="0.5" cy="0.5" r="0.78"><stop offset="0.55" stop-color="#000" stop-opacity="0"/><stop offset="1" stop-color="#101820" stop-opacity="0.12"/></radialGradient></defs>
    <rect width="1200" height="800" fill="#f7c98b" opacity="0.03" style="mix-blend-mode:overlay"/>
    <rect width="1200" height="800" fill="url(#rg1)"/></svg>