<svg xmlns="http://www.w3.org/2000/svg" id="la-map-route" width="1200" height="800" viewBox="0 0 1200 800" preserveAspectRatio="xMidYMid meet" aria-hidden="true" focusable="false"><style>
    @keyframes la-map-route-trace { from { stroke-dashoffset: 1150 } to { stroke-dashoffset: -150 } }
    @keyframes la-map-route-dropIn { 0% { opacity:.8; transform:translateY(-12px) } 70% { opacity:1; transform:translateY(3px) } 100% { opacity:1; transform:translateY(0) } }
    #la-map-route .route path { animation: la-map-route-trace 3.4s linear infinite; }
    #la-map-route .pinB { transform-box:fill-box; transform-origin:center bottom; animation: la-map-route-dropIn .6s cubic-bezier(.4,0,.2,1) 1.2s both; }
  @media (prefers-reduced-motion: reduce) { #la-map-route * { animation: none !important } }</style><rect width="1200" height="800" fill="#e6dfcf"/><rect x="60.0" y="0" width="24.0" height="800" fill="#f6f3ea"/><rect x="228.0" y="0" width="24.0" height="800" fill="#f6f3ea"/><rect x="396.0" y="0" width="24.0" height="800" fill="#f6f3ea"/><rect x="564.0" y="0" width="24.0" height="800" fill="#f6f3ea"/><rect x="732.0" y="0" width="24.0" height="800" fill="#f6f3ea"/><rect x="900.0" y="0" width="24.0" height="800" fill="#f6f3ea"/><rect x="1068.0" y="0" width="24.0" height="800" fill="#f6f3ea"/><rect x="0" y="64.0" width="1200" height="16.0" fill="#f6f3ea"/><rect x="0" y="224.0" width="1200" height="16.0" fill="#f6f3ea"/><rect x="0" y="384.0" width="1200" height="16.0" fill="#f6f3ea"/><rect x="0" y="544.0" width="1200" height="16.0" fill="#f6f3ea"/><rect x="0" y="704.0" width="1200" height="16.0" fill="#f6f3ea"/><rect x="88.8" y="88.0" width="134.4" height="128.0" rx="5" fill="#cfd6c2"/><rect x="88.8" y="248.0" width="134.4" height="128.0" rx="5" fill="#d6cdb8"/><rect x="88.8" y="408.0" width="134.4" height="128.0" rx="5" fill="#d6cdb8"/><rect x="88.8" y="568.0" width="134.4" height="128.0" rx="5" fill="#cfd6c2"/><rect x="256.8" y="88.0" width="134.4" height="128.0" rx="5" fill="#d6cdb8"/><rect x="256.8" y="248.0" width="134.4" height="128.0" rx="5" fill="#bcd4b0"/><rect x="256.8" y="408.0" width="134.4" height="128.0" rx="5" fill="#cfd6c2"/><rect x="256.8" y="568.0" width="134.4" height="128.0" rx="5" fill="#d6cdb8"/><rect x="424.8" y="88.0" width="134.4" height="128.0" rx="5" fill="#d6cdb8"/><rect x="424.8" y="248.0" width="134.4" height="128.0" rx="5" fill="#cfd6c2"/><rect x="424.8" y="408.0" width="134.4" height="128.0" rx="5" fill="#d6cdb8"/><rect x="424.8" y="568.0" width="134.4" height="128.0" rx="5" fill="#d6cdb8"/><rect x="592.8" y="88.0" width="134.4" height="128.0" rx="5" fill="#cfd6c2"/><rect x="592.8" y="248.0" width="134.4" height="128.0" rx="5" fill="#d6cdb8"/><rect x="592.8" y="408.0" width="134.4" height="128.0" rx="5" fill="#d6cdb8"/><rect x="592.8" y="568.0" width="134.4" height="128.0" rx="5" fill="#cfd6c2"/><rect x="760.8" y="88.0" width="134.4" height="128.0" rx="5" fill="#d6cdb8"/><rect x="760.8" y="248.0" width="134.4" height="128.0" rx="5" fill="#d6cdb8"/><rect x="760.8" y="408.0" width="134.4" height="128.0" rx="5" fill="#cfd6c2"/><rect x="760.8" y="568.0" width="134.4" height="128.0" rx="5" fill="#d6cdb8"/><rect x="928.8" y="88.0" width="134.4" height="128.0" rx="5" fill="#d6cdb8"/><rect x="928.8" y="248.0" width="134.4" height="128.0" rx="5" fill="#cfd6c2"/><rect x="928.8" y="408.0" width="134.4" height="128.0" rx="5" fill="#d6cdb8"/><rect x="928.8" y="568.0" width="134.4" height="128.0" rx="5" fill="#d6cdb8"/><path d="M 240.0 712.0 L 240.0 552.0 L 744.0 552.0 L 744.0 232.0" stroke="#fff" stroke-width="22" fill="none" stroke-linecap="round" stroke-linejoin="round"/><path d="M 240.0 712.0 L 240.0 552.0 L 744.0 552.0 L 744.0 232.0" stroke="#2f6fdf" stroke-width="12" fill="none" stroke-linecap="round" stroke-linejoin="round"/><g class="route"><path d="M 240.0 712.0 L 240.0 552.0 L 744.0 552.0 L 744.0 232.0" stroke="#7fb0f5" stroke-width="12" fill="none" stroke-linecap="round" stroke-linejoin="round" stroke-dasharray="150 1000" stroke-dashoffset="0"/></g><ellipse cx="240.0" cy="718.4" rx="21.6" ry="6.4" fill="#000" opacity="0.18"/><path d="M 240.0 712.0 c -38.4 -40.0 -38.4 -88.0 0 -104.0 c 38.4 16.0 38.4 64.0 0 104.0 Z" fill="#3f7f4f"/><circle cx="240.0" cy="641.6" r="15.6" fill="#fff"/><g class="pinB"><ellipse cx="744.0" cy="238.4" rx="21.6" ry="6.4" fill="#000" opacity="0.18"/><path d="M 744.0 232.0 c -38.4 -40.0 -38.4 -88.0 0 -104.0 c 38.4 16.0 38.4 64.0 0 104.0 Z" fill="#cf3f3f"/><circle cx="744.0" cy="161.6" r="15.6" fill="#fff"/></g><defs><radialGradient id="rg0" cx="0.5" cy="0.5" r="0.78"><stop offset="0.55" stop-color="#000" stop-opacity="0"/><stop offset="1" stop-color="#101820" stop-opacity="0.12"/></radialGradient></defs>
    <rect width="1200" height="800" fill="#f7c98b" opacity="0.03" style="mix-blend-mode:overlay"/>
    <rect width="1200" height="800" fill="url(#rg0)"/></svg>