<svg xmlns="http://www.w3.org/2000/svg" id="la-part-trackpad" width="1200" height="800" viewBox="0 0 1200 800" preserveAspectRatio="xMidYMid meet" aria-hidden="true" focusable="false"><style>
  @keyframes la-part-trackpad-cal { 0%,100% { opacity:.72; transform:scale(1) } 50% { opacity:1; transform:scale(1.015) } }
  #la-part-trackpad .cal { transform-box:fill-box; transform-origin:center; animation: la-part-trackpad-cal 2.4s cubic-bezier(.4,0,.2,1) infinite; }
  @media (prefers-reduced-motion: reduce) { #la-part-trackpad * { animation: none !important } }</style><defs><linearGradient id="lg0" x1="0" y1="0" x2="0" y2="1"><stop offset="0" stop-color="#eef2f7" stop-opacity="1"/><stop offset="1" stop-color="#ccd8e4" stop-opacity="1"/></linearGradient></defs><rect width="1200" height="800" fill="url(#lg0)"/><ellipse cx="600.0" cy="642.0" rx="459.4" ry="44.0" fill="#000" opacity="0.16"/><path d="M 251.5 576.0 L 314.9 240.0 L 885.1 240.0 L 948.5 576.0 Z" fill="#4a5765"/><defs><linearGradient id="lg1" x1="0" y1="0" x2="0" y2="1"><stop offset="0" stop-color="#5f8fc4" stop-opacity="1"/><stop offset="1" stop-color="#3a5f8f" stop-opacity="1"/></linearGradient></defs><path d="M 342.6 558.4 L 354.5 262.4 L 845.5 262.4 L 857.4 558.4 Z" fill="url(#lg1)"/><circle cx="600.0" cy="251.2" r="6.4" fill="#20262e"/><rect x="204.0" y="576.0" width="792.0" height="44.0" rx="13.2" fill="#8f9baa"/><rect x="204.0" y="576.0" width="792.0" height="18.5" rx="11.0" fill="#b4bfcc"/><rect x="315.9" y="579.2" width="38.7" height="1.2" rx="1.2" fill="#7f8b99"/><rect x="356.6" y="579.2" width="38.7" height="1.2" rx="1.2" fill="#7f8b99"/><rect x="397.3" y="579.2" width="38.7" height="1.2" rx="1.2" fill="#7f8b99"/><rect x="438.1" y="579.2" width="38.7" height="1.2" rx="1.2" fill="#7f8b99"/><rect x="478.8" y="579.2" width="38.7" height="1.2" rx="1.2" fill="#7f8b99"/><rect x="519.5" y="579.2" width="38.7" height="1.2" rx="1.2" fill="#7f8b99"/><rect x="560.3" y="579.2" width="38.7" height="1.2" rx="1.2" fill="#7f8b99"/><rect x="601.0" y="579.2" width="38.7" height="1.2" rx="1.2" fill="#7f8b99"/><rect x="641.7" y="579.2" width="38.7" height="1.2" rx="1.2" fill="#7f8b99"/><rect x="682.5" y="579.2" width="38.7" height="1.2" rx="1.2" fill="#7f8b99"/><rect x="723.2" y="579.2" width="38.7" height="1.2" rx="1.2" fill="#7f8b99"/><rect x="763.9" y="579.2" width="38.7" height="1.2" rx="1.2" fill="#7f8b99"/><rect x="804.7" y="579.2" width="38.7" height="1.2" rx="1.2" fill="#7f8b99"/><rect x="845.4" y="579.2" width="38.7" height="1.2" rx="1.2" fill="#7f8b99"/><rect x="315.9" y="581.7" width="38.7" height="1.2" rx="1.2" fill="#7f8b99"/><rect x="356.6" y="581.7" width="38.7" height="1.2" rx="1.2" fill="#7f8b99"/><rect x="397.3" y="581.7" width="38.7" height="1.2" rx="1.2" fill="#7f8b99"/><rect x="438.1" y="581.7" width="38.7" height="1.2" rx="1.2" fill="#7f8b99"/><rect x="478.8" y="581.7" width="38.7" height="1.2" rx="1.2" fill="#7f8b99"/><rect x="519.5" y="581.7" width="38.7" height="1.2" rx="1.2" fill="#7f8b99"/><rect x="560.3" y="581.7" width="38.7" height="1.2" rx="1.2" fill="#7f8b99"/><rect x="601.0" y="581.7" width="38.7" height="1.2" rx="1.2" fill="#7f8b99"/><rect x="641.7" y="581.7" width="38.7" height="1.2" rx="1.2" fill="#7f8b99"/><rect x="682.5" y="581.7" width="38.7" height="1.2" rx="1.2" fill="#7f8b99"/><rect x="723.2" y="581.7" width="38.7" height="1.2" rx="1.2" fill="#7f8b99"/><rect x="763.9" y="581.7" width="38.7" height="1.2" rx="1.2" fill="#7f8b99"/><rect x="804.7" y="581.7" width="38.7" height="1.2" rx="1.2" fill="#7f8b99"/><rect x="845.4" y="581.7" width="38.7" height="1.2" rx="1.2" fill="#7f8b99"/><rect x="315.9" y="584.1" width="38.7" height="1.2" rx="1.2" fill="#7f8b99"/><rect x="356.6" y="584.1" width="38.7" height="1.2" rx="1.2" fill="#7f8b99"/><rect x="397.3" y="584.1" width="38.7" height="1.2" rx="1.2" fill="#7f8b99"/><rect x="438.1" y="584.1" width="38.7" height="1.2" rx="1.2" fill="#7f8b99"/><rect x="478.8" y="584.1" width="38.7" height="1.2" rx="1.2" fill="#7f8b99"/><rect x="519.5" y="584.1" width="38.7" height="1.2" rx="1.2" fill="#7f8b99"/><rect x="560.3" y="584.1" width="38.7" height="1.2" rx="1.2" fill="#7f8b99"/><rect x="601.0" y="584.1" width="38.7" height="1.2" rx="1.2" fill="#7f8b99"/><rect x="641.7" y="584.1" width="38.7" height="1.2" rx="1.2" fill="#7f8b99"/><rect x="682.5" y="584.1" width="38.7" height="1.2" rx="1.2" fill="#7f8b99"/><rect x="723.2" y="584.1" width="38.7" height="1.2" rx="1.2" fill="#7f8b99"/><rect x="763.9" y="584.1" width="38.7" height="1.2" rx="1.2" fill="#7f8b99"/><rect x="804.7" y="584.1" width="38.7" height="1.2" rx="1.2" fill="#7f8b99"/><rect x="845.4" y="584.1" width="38.7" height="1.2" rx="1.2" fill="#7f8b99"/><rect x="315.9" y="586.5" width="38.7" height="1.2" rx="1.2" fill="#7f8b99"/><rect x="356.6" y="586.5" width="38.7" height="1.2" rx="1.2" fill="#7f8b99"/><rect x="397.3" y="586.5" width="38.7" height="1.2" rx="1.2" fill="#7f8b99"/><rect x="438.1" y="586.5" width="38.7" height="1.2" rx="1.2" fill="#7f8b99"/><rect x="478.8" y="586.5" width="38.7" height="1.2" rx="1.2" fill="#7f8b99"/><rect x="519.5" y="586.5" width="38.7" height="1.2" rx="1.2" fill="#7f8b99"/><rect x="560.3" y="586.5" width="38.7" height="1.2" rx="1.2" fill="#7f8b99"/><rect x="601.0" y="586.5" width="38.7" height="1.2" rx="1.2" fill="#7f8b99"/><rect x="641.7" y="586.5" width="38.7" height="1.2" rx="1.2" fill="#7f8b99"/><rect x="682.5" y="586.5" width="38.7" height="1.2" rx="1.2" fill="#7f8b99"/><rect x="723.2" y="586.5" width="38.7" height="1.2" rx="1.2" fill="#7f8b99"/><rect x="763.9" y="586.5" width="38.7" height="1.2" rx="1.2" fill="#7f8b99"/><rect x="804.7" y="586.5" width="38.7" height="1.2" rx="1.2" fill="#7f8b99"/><rect x="845.4" y="586.5" width="38.7" height="1.2" rx="1.2" fill="#7f8b99"/><rect x="512.9" y="591.0" width="174.2" height="8.8" rx="2" fill="#7f8b99"/><rect x="259.4" y="579.5" width="5.5" height="8.8" rx="1" fill="#6f7b89"/><rect x="270.5" y="579.5" width="5.5" height="8.8" rx="1" fill="#6f7b89"/><rect x="281.6" y="579.5" width="5.5" height="8.8" rx="1" fill="#6f7b89"/><rect x="292.7" y="579.5" width="5.5" height="8.8" rx="1" fill="#6f7b89"/><rect x="893.0" y="579.5" width="5.5" height="8.8" rx="1" fill="#6f7b89"/><rect x="904.1" y="579.5" width="5.5" height="8.8" rx="1" fill="#6f7b89"/><rect x="915.2" y="579.5" width="5.5" height="8.8" rx="1" fill="#6f7b89"/><rect x="926.3" y="579.5" width="5.5" height="8.8" rx="1" fill="#6f7b89"/><rect x="247.6" y="613.8" width="39.6" height="7.0" rx="2" fill="#5f6874"/><rect x="316.9" y="613.8" width="27.7" height="7.0" rx="2" fill="#5f6874"/><rect x="855.4" y="613.8" width="27.7" height="7.0" rx="2" fill="#5f6874"/><rect x="912.8" y="613.8" width="39.6" height="7.0" rx="2" fill="#5f6874"/><g class="cal"><rect x="508.9" y="588.0" width="182.2" height="14.8" rx="4" fill="none" stroke="#f0b429" stroke-width="7" opacity="0.95"/><rect x="502.9" y="582.0" width="194.2" height="26.8" rx="9" fill="none" stroke="#f0b429" stroke-width="3" opacity="0.35"/></g><defs><radialGradient id="rg2" cx="0.5" cy="0.5" r="0.78"><stop offset="0.55" stop-color="#000" stop-opacity="0"/><stop offset="1" stop-color="#101820" stop-opacity="0.12"/></radialGradient></defs>
    <rect width="1200" height="800" fill="#f7c98b" opacity="0.03" style="mix-blend-mode:overlay"/>
    <rect width="1200" height="800" fill="url(#rg2)"/></svg>